PathFileType	4	(X/Y/Z)	Kaydara	
DataRate	CameraRate	NumFrames	NumMarkers	Units	OrigDataRate	OrigDataStartFrame	OrigNumFrames	
240.00	240.00	4	72	mm	240.00	311	355	
Frame#	Time	Hips			RightUpLeg			RightLeg			RightFoot			RightFoot_End			LeftUpLeg			LeftLeg			LeftFoot			LeftFoot_End			Spine			Spine1			Spine2			Spine3			Neck			Head			Head_End			RightShoulder			RightArm			RightForeArm			RightHand			RightHandThumb1			RightHandThumb2			RightHandThumb3			RightHandThumb3_End			RightInHandIndex			RightHandIndex1			RightHandIndex2			RightHandIndex3			RightHandIndex3_End			RightInHandMiddle			RightHandMiddle1			RightHandMiddle2			RightHandMiddle3			RightHandMiddle3_End			RightInHandRing			RightHandRing1			RightHandRing2			RightHandRing3			RightHandRing3_End			RightInHandPinky			RightHandPinky1			RightHandPinky2			RightHandPinky3			RightHandPinky3_End			LeftShoulder			LeftArm			LeftForeArm			LeftHand			LeftHandThumb1			LeftHandThumb2			LeftHandThumb3			LeftHandThumb3_End			LeftInHandIndex			LeftHandIndex1			LeftHandIndex2			LeftHandIndex3			LeftHandIndex3_End			LeftInHandMiddle			LeftHandMiddle1			LeftHandMiddle2			LeftHandMiddle3			LeftHandMiddle3_End			LeftInHandRing			LeftHandRing1			LeftHandRing2			LeftHandRing3			LeftHandRing3_End			LeftInHandPinky			LeftHandPinky1			LeftHandPinky2			LeftHandPinky3			LeftHandPinky3_End			
		X1	Y1	Z1	X2	Y2	Z2	X3	Y3	Z3	X4	Y4	Z4	X5	Y5	Z5	X6	Y6	Z6	X7	Y7	Z7	X8	Y8	Z8	X9	Y9	Z9	X10	Y10	Z10	X11	Y11	Z11	X12	Y12	Z12	X13	Y13	Z13	X14	Y14	Z14	X15	Y15	Z15	X16	Y16	Z16	X17	Y17	Z17	X18	Y18	Z18	X19	Y19	Z19	X20	Y20	Z20	X21	Y21	Z21	X22	Y22	Z22	X23	Y23	Z23	X24	Y24	Z24	X25	Y25	Z25	X26	Y26	Z26	X27	Y27	Z27	X28	Y28	Z28	X29	Y29	Z29	X30	Y30	Z30	X31	Y31	Z31	X32	Y32	Z32	X33	Y33	Z33	X34	Y34	Z34	X35	Y35	Z35	X36	Y36	Z36	X37	Y37	Z37	X38	Y38	Z38	X39	Y39	Z39	X40	Y40	Z40	X41	Y41	Z41	X42	Y42	Z42	X43	Y43	Z43	X44	Y44	Z44	X45	Y45	Z45	X46	Y46	Z46	X47	Y47	Z47	X48	Y48	Z48	X49	Y49	Z49	X50	Y50	Z50	X51	Y51	Z51	X52	Y52	Z52	X53	Y53	Z53	X54	Y54	Z54	X55	Y55	Z55	X56	Y56	Z56	X57	Y57	Z57	X58	Y58	Z58	X59	Y59	Z59	X60	Y60	Z60	X61	Y61	Z61	X62	Y62	Z62	X63	Y63	Z63	X64	Y64	Z64	X65	Y65	Z65	X66	Y66	Z66	X67	Y67	Z67	X68	Y68	Z68	X69	Y69	Z69	X70	Y70	Z70	X71	Y71	Z71	X72	Y72	Z72	

311	1.292	7921.0129	906.651	56.2195	7917.428170354453	858.3715118127706	-21.301011524509203	7851.97040819561	447.73705933529504	-67.59003403117241	7962.4770132788435	95.691268727628	-194.9399228760764	7890.67169817167	14.635555649260212	-37.439511785739825	7930.612269129041	925.9880025472186	145.97380576661075	7880.209462757906	526.3713954618971	260.10960233652173	7782.171504977768	96.7517904292713	290.3471556059312	7666.30239606673	4.009361969299144	170.0265415603421	7893.764994700927	1036.9683571921018	3.9815466431771886	7843.376838565251	1110.5856740625618	-34.44364685845236	7784.565736658723	1182.6033735458498	-73.69997899602058	7719.039200946183	1243.588938889267	-109.81311116768799	7648.335501519229	1308.2781271855201	-147.74082955599647	7583.582452526365	1367.646612199059	-180.93186517968178	7458.028096366414	1460.226302965409	-211.0516082236259	7666.878212716255	1268.9711116958715	-154.7252504692083	7633.299247516933	1204.7781651292441	-198.30062981972475	7644.736656231631	1079.696388811094	-52.83107445874248	7601.579980690731	1056.1378178223954	25.080718076171024	7613.040167812363	1077.6884472897377	14.491559449527756	7615.534788837138	1077.9170286585056	18.738043764709346	7615.77634513859	1075.228838563958	24.206731410351722	7614.698193284038	1070.5519530425468	30.914204542401592	7609.321195987018	1071.015408236805	21.71059834965169	7613.043548082833	1076.448609875123	29.39331879818542	7612.475799035256	1071.9138716176278	39.07836074679693	7611.318856451727	1066.4279635858481	44.83908984528918	7609.818949890586	1060.088528225563	49.431558192861644	7604.973475303232	1062.6866445864296	28.480112985631735	7606.253363527375	1063.4833632910004	39.634002922311254	7605.044143712877	1057.4080915460258	51.076033539197	7603.365356071446	1050.2487358944443	58.44541274729059	7601.586621027751	1043.0493341178312	63.67422687904306	7601.829853521756	1056.7306278982976	33.040614978670106	7600.3153760022215	1052.470144005002	46.9191904753811	7598.65642147063	1046.0210394088158	57.767849104110326	7596.715810022941	1038.5024913219431	65.34126947850234	7594.891096685189	1031.442854549352	70.4780565634837	7597.9173867543495	1049.181537627256	38.27993772609216	7594.194780187078	1040.8461160188644	54.15418069852049	7591.928923727616	1033.8998178355578	64.14731306042029	7590.059965899258	1027.5537007293942	70.30311882361332	7588.182592701188	1020.803887404552	75.21704075204761	7677.620174041978	1305.7305838663538	-115.02515695876045	7716.822716201914	1350.3362540002665	-31.172403590128273	7759.413049523015	1132.4669431426942	-14.696858998434116	7666.067246340241	993.9771488631527	49.23006076162697	7661.28962428978	1014.6015346202491	49.9084672990773	7664.201919313609	1013.1516267058751	55.722487421533174	7668.281907014921	1008.5030256035743	60.29265001117487	7673.438534056761	1001.514719122805	64.54853911150406	7668.068072099915	1004.7820529252369	51.512525661146896	7679.336846004186	1002.0258722824201	58.3499370815143	7687.919135038407	992.9892380436327	64.85390075452088	7691.115264465391	986.6418188331997	68.9004965041907	7692.317558535152	980.8960925675146	72.2519424433531	7673.291784720628	994.642449145031	52.77532178940767	7687.108305720083	986.4716641439309	60.1268751270502	7697.126919519611	975.2730495692891	67.37061887598563	7701.296584554691	966.97312470636	72.32304929502357	7702.764588173284	960.3741592046049	76.02434242158049	7676.702914820245	987.597096383836	53.48004702522297	7692.070192920288	974.2988435231225	60.64234708354219	7701.448667540804	963.1830180201505	67.09444541148527	7705.813811878458	954.4574587299891	71.94496786641001	7707.356722465788	947.9117552490637	75.45995170643263	7680.2438491564635	979.179091064735	54.1962795386263	7696.552547203686	961.9523382319487	61.16577823043062	7705.003567938549	950.9947699698996	66.51719718911791	7708.642760008245	943.6355461743761	70.14459036419052	7710.271520975419	937.2646202950724	73.30974719940365
312	1.296	7921.0129	906.651	56.2195	7917.072074525415	858.2315900043642	-21.394814441621033	7851.704574142797	447.5593165866051	-67.5348832833968	7962.676528085065	95.64431133470255	-195.09971717865554	7890.8903304004425	14.569317171672484	-37.60001782468696	7930.959072745725	926.1278612395097	146.07262019207727	7880.595979536277	526.532750564151	260.3055437893717	7782.2996100813125	96.92265126807683	290.32509871483506	7666.504602567498	4.104394587572752	169.98248081350513	7893.815746596315	1036.9734368683205	3.963963905284397	7843.4024401036995	1110.6082398837082	-34.40342250707711	7784.557767788906	1182.6498994544397	-73.57970003576196	7718.987900102144	1243.6700733811208	-109.58201931062663	7648.237749088048	1308.3940823363232	-147.39145942275832	7583.448235518436	1367.798986201597	-180.47228978852667	7457.87322690567	1460.3959706093083	-210.47313567759002	7666.655369537008	1268.9777262054245	-154.4023697892643	7632.528594638807	1204.4165195575063	-197.58804719088593	7644.096583854509	1080.093137198424	-51.24990227827331	7600.601733383692	1057.4073364889537	27.921202398286226	7612.100621046354	1079.0611522270035	17.37661520764769	7614.675267230761	1079.305466507065	21.760205480765592	7614.964257357006	1076.6303996463566	27.338176648123124	7613.918552298611	1071.966308045169	34.14856272100681	7608.3489531818595	1072.4169766560283	24.645509429645017	7612.077904973658	1078.0096589029743	32.539824533784895	7611.549516571304	1073.5237876861527	42.391952698076125	7610.442374135974	1068.020024619644	48.23978522561748	7609.0007727573775	1061.6332741937495	52.893034468222254	7603.9800924379415	1064.0856031474684	31.446143894759103	7605.254973218158	1065.0364804672815	42.82324396306191	7604.085936326689	1059.0135931502994	54.451043523816	7602.4659028135175	1051.832245191264	61.92716272338828	7600.75031867867	1044.5808529267106	67.22328567582048	7600.820960840132	1058.1243495024896	36.02316339076836	7599.2873442814325	1053.9994560931084	50.11591598908572	7597.660597193636	1047.594799519685	61.12966127442951	7595.775163297581	1040.054395170086	68.8077241288785	7594.009119077818	1032.9455695241118	74.00859609907894	7596.893624866158	1050.5592728797442	41.275937618339526	7593.142937264914	1042.34068042798	57.35475183056357	7590.898564291595	1035.4274898297197	67.48409115272443	7589.067769727191	1029.0642287345033	73.7181641568337	7587.241168785539	1022.2701503313974	78.68997170358548	7677.6860082883095	1305.9354713215175	-114.73301067189352	7717.442523390878	1351.0792634426862	-30.950766708297664	7759.877819502052	1133.0112303633039	-13.608277068015873	7665.4186621531835	994.6596567183879	51.5141858980748	7660.701937755327	1015.3916605181096	52.31547003766826	7663.684123711932	1014.0275322019837	58.330977265370166	7667.826919623473	1009.4331303856039	63.03993525545512	7673.048000253505	1002.4852701968595	67.4102315724895	7667.541915471275	1005.5644176369844	53.91899321072971	7679.027409183637	1002.9307106006264	60.965287141894635	7687.732372777508	993.9674691896066	67.64858174130865	7690.96099038725	987.6541884528458	71.81034306818461	7692.160644931611	981.9289683510791	75.25959083600495	7672.7951954386335	995.4049269590579	55.171998849351	7686.839099453325	987.3428455544233	62.72198453731053	7696.9947388375	976.2212810771468	70.1594870473173	7701.20511747902	967.9610860595961	75.24993581737354	7702.670970805902	961.3838497117831	79.05779232682113	7676.222105813095	988.3425071189117	55.8641634532121	7691.808095444972	975.1271759717165	63.19247835609107	7701.308872226395	964.0752319266912	69.8111787513924	7705.714812182495	955.3862556201881	74.79362070080924	7707.256423123893	948.8601586417516	78.40822749654455	7679.771630485124	979.9004292472564	56.56233563923905	7696.287708964996	962.7352942366842	63.671984220646834	7704.840185559967	951.8234070148421	69.1525351076845	7708.510837278068	944.4882195817246	72.87408205789929	7710.139427153886	938.1331382601479	76.12629798744841
313	1.3	7921.0129	906.651	56.2195	7916.717895210877	858.0924658766328	-21.488027178508922	7851.440368916555	447.38261383729866	-67.48030499610697	7962.874494320301	95.59762075810373	-195.25876905423323	7891.107360868119	14.503494863266598	-37.759731750388276	7931.304041182833	926.266941884987	146.17083796620105	7880.980251477913	526.6932612753099	260.5004337858953	7782.426782546596	97.09262971086133	290.3032225108875	7666.705458591851	4.198993962274157	169.93871679304792	7893.8660863987325	1036.978401529206	3.9463822098310954	7843.427605263058	1110.6304804571503	-34.36347179721177	7784.549378245227	1182.695856995154	-73.46004015639964	7718.936267704053	1243.7503826461982	-109.35197709320408	7648.139768909966	1308.5089570509601	-147.04359841780536	7583.3138710715175	1367.9500389618654	-180.01465186612452	7457.718422779879	1460.5644402085559	-209.8970093319809	7666.432850501886	1268.98377665435	-154.0808744163496	7631.760039513594	1204.0552869068931	-196.87812524899297	7643.459160708581	1080.4873692253386	-49.67391918691342	7599.62874299347	1058.670170372976	30.7547647530736	7611.1662274576265	1080.4262603372376	20.254772918328257	7613.820698748559	1080.686009416569	24.77524851267532	7614.157026193159	1078.0239051415954	30.46234098441724	7613.143724100836	1073.3725137060317	37.37549743673611	7607.382030855154	1073.8109701645365	27.57351638089287	7611.117737113622	1079.5622185265802	35.67932447695625	7610.628692309067	1075.1249130489082	45.69834829522162	7609.571224063984	1069.6033242739823	51.63311487993994	7608.187745799036	1063.1694291899728	56.3469704950773	7602.992135172069	1065.477162271009	34.40524522087844	7604.2622163626165	1066.5814010545828	46.005442527093805	7603.133357004704	1060.6105959237764	57.818799912368405	7601.571931996186	1053.407303773944	65.40145323712738	7599.919302635817	1046.104113669554	70.7646933094602	7599.817565653726	1059.5108156999427	38.99876797110781	7598.265063360679	1055.520913807308	53.30558746311573	7596.670532178847	1049.160470238774	64.48423230922768	7594.840142357123	1041.5982711305362	72.26673743170542	7593.132586151083	1034.440444900768	77.53151326408869	7595.87542642718	1051.9299710420325	44.26497121831025	7592.09693612485	1043.827781675922	60.54824553507504	7589.874072828041	1036.9475574394835	70.81363765968831	7588.081353560078	1030.5672199377009	77.12582977056917	7586.3053698506765	1023.7290563265691	82.1553613708517	7677.750960294558	1306.138919680452	-114.44217223256217	7718.0593100129645	1351.8185824723096	-30.73032397569172	7760.34180149617	1133.5525526077683	-12.523554124384411	7664.774806276744	995.3385601961003	53.79142609921075	7660.118823245493	1016.1775937386119	54.71513443824227	7663.17084218244	1014.8989283784216	60.93129587800368	7667.376384582298	1010.3585421484806	65.77844958779983	7672.661849069446	1003.451006599631	70.26263638016479	7667.020219334965	1006.3426422750387	56.31803392817126	7678.722033575565	1003.8308365830179	63.57220724686678	7687.549503957606	994.9407253065337	70.43400885591029	7690.81061425964	988.6615085481845	74.71044830512784	7692.007706408827	982.9567928632599	78.2571111461854	7672.303027672817	996.163391177979	57.561224554721264	7686.573904143477	988.2095235763336	65.30865094844255	7696.866382330047	977.1647412599211	72.93901302335519	7701.11747823845	968.944195192612	78.16689198146156	7702.58126480275	962.3886904530443	82.08088866095753	7675.745699637429	989.0840069697551	58.240837749370286	7691.550012726981	975.9512440878394	65.73428956990394	7701.172925738768	964.962967879688	72.51880969990629	7705.619663181881	956.310507102508	77.632604562925	7707.160052228323	949.8040239457471	81.34643674265223	7679.303815209731	980.6180013480433	58.92098181783169	7696.026913915709	963.514244871509	66.169997779522	7704.6807103183855	952.647900247841	71.77906015346622	7708.38282150875	945.3367157540241	75.59435052518774	7710.011308282252	938.9974945543925	78.93327504155201
314	1.304	7921.0129	906.651	56.2195	7916.3656606771565	857.9541500905847	-21.58064332932986	7851.177811171575	447.20696472626304	-67.42630235181805	7963.0708985534775	95.55120050257928	-195.41706533457187	7891.322774227851	14.438093442742726	-37.918640680519005	7931.647146766984	926.4052337233036	146.26845215884384	7881.362249154865	526.8529147623462	260.6942571651436	7782.5530133669645	97.26171199755485	290.28152786778855	7666.904949375747	4.293152012669655	169.8952521626974	7893.916010717319	1036.9832512501644	3.928803545466075	7843.4523334175965	1110.65239496893	-34.32379765656296	7784.54057085526	1182.7412439050736	-73.34100927981633	7718.884310682495	1243.8298618416077	-109.12300436836044	7648.041572272928	1308.622743855031	-146.69727700568725	7583.179373861898	1368.099760115881	-179.55899176963644	7457.563699660494	1460.731698570525	-209.3232807383814	7666.2106777147965	1268.9892646337214	-153.7607928273109	7630.993655067983	1203.694503310681	-196.17092964477249	7642.824436898991	1080.8790510857805	-48.10327510618808	7598.661079106999	1059.9262097271744	33.581118040712	7610.237051331742	1081.7836557299183	23.125740515075393	7612.971138981284	1082.0585418941612	27.78286699676184	7613.354702035779	1079.4092392604607	33.578907313824914	7612.3737554724885	1074.7704534984296	40.59468081513029	7606.420496421393	1075.197269264389	30.49432105382158	7610.163109346727	1081.106156502047	38.8114965457155	7609.713386326292	1076.7171118732367	48.997207584825816	7608.705461220573	1071.1777288399503	55.01873026387031	7607.3799183483825	1064.6968642006448	59.79301231789134	7602.0096731881795	1066.8612015945098	37.357115147060114	7603.275161363787	1068.1179917891727	49.18027147119571	7602.186469252905	1062.1989626205263	61.17895565257288	7600.6835011268295	1054.9737769270469	68.86792667584899	7599.093624293151	1047.6189867530404	74.29808615140405	7598.819739348387	1060.8899057826218	41.96712491940474	7597.248605060947	1057.0343844023328	56.48787666906364	7595.686294291188	1050.7179153033048	67.83121625042114	7593.910809446164	1043.133985356636	75.71795304245057	7592.261554480002	1035.9273516370213	81.0464459626881	7594.862864582803	1053.2935118490886	47.246733157439365	7591.056851513735	1045.3072885251488	63.73433305324454	7588.855521400888	1038.4598865908376	74.13560914384652	7587.100785596951	1032.0625420177341	80.52576441857326	7585.375259208308	1025.180477319188	85.61285327887396	7677.815026990386	1306.3409139303444	-114.15266657580082	7718.673023816429	1352.5541493543794	-30.511091292744222	7760.804941268148	1134.0908645881696	-11.442790315728352	7664.135714742678	996.0137994221957	56.06155882251069	7659.540310031354	1016.9592648602585	57.10722796139484	7662.662094802405	1015.7657372382555	63.52319307542162	7666.93031405974	1011.2791773761663	68.50793075075501	7672.280084790948	1004.4118406014259	73.10548139526622	7666.5030065267065	1007.1166580537827	58.70941580324356	7678.420718059152	1004.7261699867122	66.17044877345853	7687.370513004158	995.9089187736136	73.20991829134883	7690.664115825424	989.6636877584529	77.60053809394151	7691.858721736583	983.9794722189774	81.24422012615312	7671.8153011010745	996.9177746748702	59.942767884058526	7686.312714393251	989.0716208046849	67.88662767127354	7696.741828491872	978.1033449186267	75.70893372598354	7701.0336395169115	969.9223625175138	81.07364235187876	7702.495441704618	963.388589138338	85.09334604430944	7675.273714314338	989.8215302683174	60.60984004961773	7691.2959387681685	976.7709742429721	68.26753792625539	7701.0408077362135	965.8461457360347	75.21708138174448	7705.528338768769	957.2301289483989	80.4616507683989	7707.0675825199705	950.7432644619315	84.27430146264626	7678.84042042838	981.3317437546608	61.271989750749384	7695.77015642226	964.289120468273	68.65957978117858	7704.525124725673	953.4681752536641	74.39652230941861	7708.2586908279245	946.1809575232445	78.3051373196372	7709.887141365654	939.8576099519754	81.73041178501839
